<svg xmlns="http://www.w3.org/2000/svg" version="1.1" xmlns:xlink="http://www.w3.org/1999/xlink" xmlns:svgjs="http://svgjs.dev/svgjs" width="1000" height="1000" viewBox="0 0 1000 1000"><g transform="matrix(1,0,0,1,-0.49999999999994316,-0.49999999999994316)"><svg viewBox="0 0 280 280" data-background-color="#000000" preserveAspectRatio="xMidYMid meet" height="1000" width="1000" xmlns="http://www.w3.org/2000/svg" xmlns:xlink="http://www.w3.org/1999/xlink"><g id="tight-bounds" transform="matrix(1,0,0,1,0.13999999999998636,0.13999999999998636)"><svg viewBox="0 0 279.72 279.72" height="279.72" width="279.72"><g><svg viewBox="0 0 279.72 279.72" height="279.72" width="279.72"><g><svg viewBox="0 0 279.72 279.72" height="279.72" width="279.72"><g id="textblocktransform"><svg viewBox="0 0 279.72 279.72" height="279.72" width="279.72" id="textblock"><g><svg viewBox="0 0 279.72 279.72" height="279.72" width="279.72"><g transform="matrix(1,0,0,1,89.67083255509664,73.92936372216631)"><svg viewBox="0 0 100.37833488980677 131.8612725556674" height="131.8612725556674" width="100.37833488980677"><g><svg xmlns="http://www.w3.org/2000/svg" xmlns:xlink="http://www.w3.org/1999/xlink" version="1.1" x="0" y="0" viewBox="14.5 3.3 71.1 93.39999999999999" enable-background="new 0 0 100 100" xml:space="preserve" height="131.8612725556674" width="100.37833488980677" class="icon-kg-0" data-fill-palette-color="accent" id="kg-0"><path d="M52.1 84.4v8.1h12.2c1.2 0 2.1 1 2.1 2.1s-1 2.1-2.1 2.1H35.7c-1.2 0-2.1-1-2.1-2.1s1-2.1 2.1-2.1h12.2v-8.1H18.7c-2.3 0-4.2-1.9-4.2-4.2V39.9c0-2.3 1.9-4.2 4.2-4.2H33c1.2 0 2.1 1 2.1 2.1s-1 2.1-2.1 2.1H18.7l0 17.6v22.7l31.2 0c0 0 0 0 0.1 0 0 0 0 0 0.1 0l31.2 0 0-40.3-14.2 0c-1.2 0-2.1-1-2.1-2.1s1-2.1 2.1-2.1h14.3c2.3 0 4.2 1.9 4.2 4.2v40.3c0 2.3-1.9 4.2-4.2 4.2H52.1zM50.2 3.3c3.5 0.1 6.3 3 6.2 6.5-0.1 2.7-1.8 5-4.2 5.8v52.9c0 1.2-1 2.1-2.1 2.1-1.2 0-2.1-1-2.1-2.1V15.6c-0.9-0.3-1.8-0.9-2.5-1.6-1.2-1.2-1.8-2.8-1.8-4.5 0.1-3.4 2.9-6.2 6.4-6.2L50.2 3.3zM50.1 7.5L50.1 7.5c-1.2 0-2.1 0.9-2.2 2.1 0 0.6 0.2 1.1 0.6 1.5 0.4 0.4 0.9 0.6 1.5 0.7l0.1 0c1.1 0 2.1-0.9 2.1-2.1C52.1 8.5 51.2 7.6 50.1 7.5zM57.2 58.6V25.9c0-3.8 3.1-6.9 6.9-6.9h4.8c0.9-2.5 3.2-4.2 6-4.2 3.5 0 6.4 2.9 6.4 6.4s-2.9 6.4-6.4 6.4c-2.8 0-5.1-1.8-6-4.2h-4.8c-1.5 0-2.6 1.2-2.6 2.6v32.7c0 1.2-1 2.1-2.1 2.1C58.2 60.8 57.2 59.8 57.2 58.6zM72.8 21.2c0 1.2 0.9 2.1 2.1 2.1 1.2 0 2.1-0.9 2.1-2.1S76.1 19 74.9 19C73.7 19 72.8 20 72.8 21.2zM38.5 58.6V25.9c0-1.5-1.2-2.6-2.6-2.6h-4.8c-0.9 2.5-3.2 4.2-6 4.2-3.5 0-6.4-2.9-6.4-6.4s2.9-6.4 6.4-6.4c2.8 0 5.1 1.8 6 4.2h4.8c3.8 0 6.9 3.1 6.9 6.9v32.7c0 1.2-1 2.1-2.1 2.1S38.5 59.8 38.5 58.6zM27.2 21.2c0-1.2-0.9-2.1-2.1-2.1S23 20 23 21.2s0.9 2.1 2.1 2.1S27.2 22.3 27.2 21.2z" fill="#c0c0c0" data-fill-palette-color="accent"></path></svg></g></svg></g><g><path d="M28.432 109.667l-2.558 6.73-23.151-19.035 3.06-8.049 29.765 1.635-2.537 6.673-5.218-0.333-3.483 9.161zM11.7 96.266l8.531 6.796 2.324-6.113z" fill="#d8d1d1" data-fill-palette-color="primary"></path><path d="M52.806 67.332l-7.96 9.494-21.766-18.249 7.901-9.424c1.479-1.764 2.96-3.009 4.444-3.735 1.484-0.726 2.91-1.01 4.279-0.852 1.365 0.164 2.602 0.711 3.713 1.642v0c1.204 1.009 1.933 2.204 2.189 3.585 0.257 1.39 0.109 2.799-0.443 4.227v0c0.818-0.586 1.684-1.018 2.596-1.295 0.917-0.282 1.859-0.336 2.826-0.162 0.972 0.179 1.938 0.671 2.898 1.475v0c0.638 0.535 1.215 1.222 1.731 2.061 0.511 0.835 0.829 1.809 0.956 2.922 0.122 1.119-0.063 2.372-0.556 3.761-0.497 1.394-1.433 2.911-2.808 4.55zM40.653 64.472l4 3.353 3.471-4.139c0.735-0.877 1.128-1.678 1.18-2.404 0.051-0.735-0.238-1.366-0.865-1.892v0c-0.628-0.526-1.311-0.733-2.051-0.619-0.73 0.112-1.485 0.633-2.264 1.561v0zM35.308 53.112l-3.386 4.039 4.156 3.484 3.36-4.007c0.835-0.996 1.24-1.863 1.213-2.601-0.026-0.738-0.343-1.361-0.95-1.87v0c-0.581-0.487-1.253-0.697-2.016-0.63-0.758 0.071-1.55 0.6-2.377 1.585z" fill="#d8d1d1" data-fill-palette-color="primary"></path><path d="M74.207 48.621l-13.997-24.716 8.748-4.954c2.545-1.441 5.072-2.207 7.58-2.297 2.509-0.09 4.836 0.475 6.982 1.694 2.149 1.226 3.948 3.117 5.396 5.674v0c1.425 2.515 2.11 5.01 2.055 7.484-0.057 2.468-0.771 4.751-2.142 6.85-1.371 2.099-3.329 3.869-5.874 5.311v0zM72.025 24.368l-2.854 1.616 7.882 13.918 2.854-1.617c1.343-0.761 2.329-1.72 2.958-2.877 0.634-1.161 0.924-2.414 0.869-3.76-0.06-1.343-0.466-2.677-1.216-4.003v0c-0.781-1.378-1.731-2.439-2.852-3.181-1.127-0.739-2.347-1.129-3.662-1.171-1.309-0.044-2.635 0.314-3.979 1.075z" fill="#d8d1d1" data-fill-palette-color="primary"></path><path d="M111.041 20.769l-2.644-17.019 6.694-1.04 2.643 17.02c0.311 2 1.043 3.36 2.196 4.078 1.16 0.717 2.506 0.957 4.037 0.719v0c1.559-0.242 2.785-0.881 3.679-1.918 0.887-1.035 1.176-2.553 0.866-4.553v0l-2.644-17.02 6.673-1.036 2.644 17.019c0.369 2.375 0.221 4.511-0.444 6.41-0.663 1.905-1.82 3.479-3.469 4.722-1.643 1.242-3.763 2.064-6.359 2.467v0c-2.596 0.403-4.865 0.262-6.807-0.423-1.936-0.686-3.505-1.836-4.709-3.451-1.202-1.608-1.988-3.6-2.356-5.975z" fill="#d8d1d1" data-fill-palette-color="primary"></path><path d="M161.323 1.946l6.656 1.255-4.163 22.085 10.548 1.988-1.099 5.828-17.204-3.243z" fill="#d8d1d1" data-fill-palette-color="primary"></path><path d="M202.766 14.79l5.99 3.162-10.493 19.874 9.493 5.012-2.769 5.244-15.483-8.174z" fill="#d8d1d1" data-fill-palette-color="primary"></path><path d="M221.113 62.392l-4.896-5.279 27.33-12.302 5.856 6.314-14.671 25.95-4.855-5.234 2.613-4.53-6.664-7.185zM240.546 53.343l-9.875 4.63 4.447 4.795z" fill="#d8d1d1" data-fill-palette-color="primary"></path><path d="M243.221 91.631l26.071-11.273 2.688 6.217-10.272 4.442 4.26 9.852 10.272-4.441 2.713 6.273-26.071 11.273-2.713-6.274 10.319-4.461-4.26-9.853-10.319 4.462z" fill="#d8d1d1" data-fill-palette-color="primary"></path><path d="M12.986 187.267v0c-0.316-1.029-0.362-2.01-0.138-2.942 0.219-0.924 0.721-1.747 1.504-2.47 0.784-0.722 1.852-1.291 3.205-1.706v0c1.366-0.419 2.575-0.55 3.63-0.391 1.046 0.154 1.923 0.554 2.631 1.2 0.715 0.645 1.23 1.481 1.546 2.51v0c0.459 1.495 0.456 2.742-0.01 3.742-0.465 1-1.239 1.743-2.321 2.232v0l-1.432-2.832c0.463-0.291 0.815-0.633 1.056-1.026 0.241-0.393 0.286-0.835 0.134-1.326v0c-0.133-0.434-0.38-0.776-0.74-1.027-0.36-0.251-0.837-0.384-1.429-0.4-0.595-0.023-1.306 0.093-2.135 0.347v0c-0.809 0.248-1.45 0.548-1.923 0.898-0.473 0.351-0.787 0.734-0.943 1.15-0.158 0.41-0.172 0.825-0.043 1.246v0c0.187 0.608 0.484 1.013 0.893 1.213 0.417 0.205 0.855 0.237 1.315 0.096v0l0.911 2.97c-0.913 0.28-1.742 0.336-2.487 0.169-0.741-0.176-1.386-0.57-1.934-1.181-0.542-0.613-0.972-1.437-1.29-2.472z" fill="#d8d1d1" data-fill-palette-color="primary"></path><path d="M17.459 198.613l-1.158-2.719 11.381-4.844 1.893 4.448c0.607 1.427 0.755 2.673 0.444 3.74-0.32 1.063-1.028 1.828-2.124 2.295v0c-1.078 0.459-2.107 0.434-3.09-0.076-0.985-0.515-1.78-1.486-2.387-2.913v0l-0.736-1.728zM20.342 205.388l-1.511-3.551 4.313-5.114 1.221 2.869zM26.494 194.767l-3.046 1.297 0.605 1.42c0.289 0.679 0.645 1.127 1.068 1.344 0.423 0.217 0.853 0.233 1.29 0.048v0c0.449-0.191 0.758-0.492 0.929-0.904 0.171-0.411 0.134-0.903-0.11-1.476v0z" fill="#d8d1d1" data-fill-palette-color="primary"></path><path d="M23.23 210.602l-1.545-2.719 12.812-2.49 1.856 3.267-8.814 9.527-1.535-2.702 1.559-1.656-2.107-3.709zM32.376 208.712l-4.655 0.975 1.409 2.481z" fill="#d8d1d1" data-fill-palette-color="primary"></path><path d="M31.295 223.675l-1.694-2.421 10.134-7.091 4.628 6.615-2.088 1.461-2.934-4.193-1.989 1.391 2.626 3.753-2.064 1.443-2.625-3.752z" fill="#d8d1d1" data-fill-palette-color="primary"></path><path d="M46.269 226.907l-2.806-3.253 1.93-1.665 6.653 7.713-1.93 1.665-2.786-3.23 0.931 0.069-7.935 6.846-1.924-2.23 7.935-6.846z" fill="#d8d1d1" data-fill-palette-color="primary"></path><path d="M47.059 242.288l-2.07-2.109 8.831-8.662 2.069 2.11z" fill="#d8d1d1" data-fill-palette-color="primary"></path><path d="M50.665 245.559l8.023-9.414 2.342 1.996-1.067 8.924-0.155-0.131 4.855-5.697 2.241 1.911-8.023 9.414-2.164-1.845 1.154-9.824 0.379 0.323-5.336 6.26z" fill="#d8d1d1" data-fill-palette-color="primary"></path><path d="M66.762 258.289v0c-0.869-0.576-1.491-1.322-1.866-2.238-0.379-0.91-0.5-1.904-0.362-2.982 0.144-1.074 0.566-2.139 1.266-3.194v0c0.528-0.795 1.126-1.446 1.796-1.953 0.671-0.497 1.38-0.843 2.127-1.038 0.753-0.191 1.517-0.217 2.292-0.076 0.774 0.132 1.53 0.443 2.269 0.933v0c1.117 0.741 1.86 1.599 2.228 2.575 0.366 0.966 0.342 2.087-0.074 3.363v0l-2.923-1.269c0.106-0.539 0.097-1.028-0.026-1.468-0.127-0.433-0.399-0.789-0.817-1.065v0c-0.401-0.266-0.846-0.378-1.335-0.338-0.488 0.05-0.981 0.247-1.478 0.592-0.501 0.35-0.968 0.853-1.402 1.507v0c-0.43 0.649-0.71 1.272-0.838 1.869-0.128 0.597-0.119 1.128 0.029 1.592 0.149 0.473 0.424 0.842 0.825 1.107v0c0.395 0.262 0.804 0.411 1.226 0.448 0.419 0.042 0.811-0.022 1.177-0.194 0.362-0.166 0.657-0.421 0.886-0.765v0l0.431 0.286c-0.558 0.841-1.139 1.503-1.744 1.987-0.611 0.48-1.227 0.754-1.849 0.821-0.616 0.071-1.228-0.096-1.838-0.5zM71.537 261.103l-2.022-1.342 1.096-2.331 1.212-1.828-2.042-1.367 0.999-1.507 4.384 2.909z" fill="#d8d1d1" data-fill-palette-color="primary"></path><path d="M81.575 266.427l5.082-11.276 4 1.803c1.16 0.523 2.079 1.212 2.755 2.066 0.68 0.864 1.081 1.828 1.203 2.893 0.119 1.071-0.085 2.19-0.61 3.356v0c-0.517 1.148-1.215 2.029-2.094 2.643-0.881 0.62-1.869 0.958-2.964 1.014-1.088 0.059-2.213-0.173-3.373-0.696v0zM89.543 259.426l-1.306-0.589-2.862 6.351 1.305 0.589c0.611 0.275 1.201 0.374 1.771 0.297 0.57-0.077 1.082-0.3 1.537-0.667 0.461-0.364 0.828-0.848 1.1-1.453v0c0.284-0.63 0.409-1.238 0.377-1.824-0.026-0.584-0.201-1.112-0.523-1.583-0.322-0.472-0.788-0.846-1.399-1.121z" fill="#d8d1d1" data-fill-palette-color="primary"></path><path d="M98.11 273.222l-2.785-0.987 4.129-11.659 2.786 0.986z" fill="#d8d1d1" data-fill-palette-color="primary"></path><path d="M107.312 276.037v0c-1.01-0.258-1.843-0.758-2.499-1.499-0.658-0.734-1.099-1.633-1.323-2.697-0.218-1.062-0.169-2.206 0.144-3.432v0c0.237-0.925 0.587-1.737 1.053-2.436 0.47-0.69 1.026-1.251 1.667-1.68 0.648-0.428 1.361-0.704 2.14-0.826 0.774-0.13 1.591-0.086 2.45 0.134v0c1.299 0.332 2.282 0.898 2.951 1.698 0.664 0.792 1.01 1.859 1.037 3.201v0l-3.179-0.237c-0.077-0.544-0.247-1.003-0.507-1.377-0.262-0.368-0.636-0.613-1.122-0.738v0c-0.466-0.119-0.923-0.079-1.372 0.121-0.444 0.208-0.845 0.556-1.201 1.045-0.357 0.496-0.633 1.124-0.827 1.885v0c-0.193 0.754-0.252 1.435-0.177 2.041 0.076 0.606 0.259 1.104 0.551 1.493 0.297 0.397 0.678 0.656 1.144 0.774v0c0.459 0.117 0.894 0.124 1.305 0.02 0.409-0.098 0.759-0.288 1.048-0.571 0.287-0.276 0.482-0.614 0.584-1.014v0l0.502 0.128c-0.25 0.977-0.581 1.794-0.994 2.451-0.419 0.655-0.911 1.116-1.475 1.383-0.558 0.27-1.191 0.314-1.9 0.133zM112.747 277.123l-2.352-0.601 0.268-2.563 0.544-2.125-2.379-0.619 0.448-1.751 5.097 1.303z" fill="#d8d1d1" data-fill-palette-color="primary"></path><path d="M120.237 278.436l-2.914-0.495 2.073-12.195 2.913 0.495z" fill="#d8d1d1" data-fill-palette-color="primary"></path><path d="M128.76 269.423l-4.281-0.351 0.208-2.54 10.151 0.831-0.208 2.54-4.251-0.348 0.712-0.604-0.855 10.445-2.935-0.24 0.855-10.445z" fill="#d8d1d1" data-fill-palette-color="primary"></path><path d="M138.288 279.689l-3.127 0.031 4.041-12.409 3.758-0.037 4.051 12.329-3.107 0.031-0.692-2.167-4.265 0.042zM141.075 270.776l-1.408 4.543 2.854-0.028z" fill="#d8d1d1" data-fill-palette-color="primary"></path><path d="M149.426 266.989l2.94-0.301 0.997 9.738 4.647-0.475 0.262 2.566-7.587 0.776z" fill="#d8d1d1" data-fill-palette-color="primary"></path><path d="M176.467 274.588l-8.029 1.967-2.944-12.014 8.029-1.967 0.607 2.476-5.169 1.266 0.566 2.308 4.843-1.187 0.611 2.496-4.843 1.187 0.547 2.229 5.168-1.267z" fill="#d8d1d1" data-fill-palette-color="primary"></path><path d="M183.366 272.17l-3.349 1.249 1.936-7.301-6.26-4.287 3.425-1.278 3.881 2.703 0.667-4.4 3.33-1.243-1.648 7.173 6.61 4.178-3.492 1.303-4.112-2.595z" fill="#d8d1d1" data-fill-palette-color="primary"></path><path d="M197.933 266.094l-2.666 1.321-5.49-11.084 4.259-2.11c1.274-0.631 2.439-0.826 3.495-0.586 1.05 0.243 1.872 0.965 2.467 2.167v0c0.592 1.195 0.668 2.287 0.228 3.275-0.446 0.991-1.306 1.803-2.58 2.434v0l-1.592 0.789zM193.575 257.294l1.334 2.694 1.592-0.789c0.479-0.237 0.774-0.55 0.885-0.936 0.117-0.39 0.086-0.764-0.091-1.122v0c-0.18-0.364-0.461-0.618-0.842-0.762-0.378-0.153-0.806-0.111-1.286 0.127v0z" fill="#d8d1d1" data-fill-palette-color="primary"></path><path d="M213.883 256.969l-7.03 4.347-6.506-10.52 7.031-4.347 1.34 2.168-4.525 2.798 1.249 2.021 4.241-2.622 1.352 2.185-4.241 2.623 1.207 1.952 4.526-2.799z" fill="#d8d1d1" data-fill-palette-color="primary"></path><path d="M220.154 252.238l-2.333 1.813-7.592-9.764 3.816-2.967c1.224-0.952 2.391-1.413 3.502-1.386 1.11 0.038 2.03 0.527 2.762 1.468v0c0.719 0.925 0.958 1.927 0.717 3.006-0.247 1.084-0.982 2.101-2.206 3.053v0l-1.483 1.153zM225.967 247.718l-3.047 2.369-6.046-2.863 2.461-1.913zM214.126 244.485l2.033 2.614 1.218-0.948c0.583-0.453 0.925-0.912 1.026-1.377 0.102-0.465 0.007-0.884-0.284-1.258v0c-0.299-0.385-0.669-0.607-1.11-0.667-0.441-0.06-0.908 0.101-1.399 0.483v0z" fill="#d8d1d1" data-fill-palette-color="primary"></path><path d="M231.009 243.082l-2.181 1.994-8.346-9.129 2.182-1.994z" fill="#d8d1d1" data-fill-palette-color="primary"></path><path d="M240.053 233.564l-5.64 6.043-9.043-8.44 5.641-6.043 1.863 1.739-3.631 3.89 1.737 1.622 3.403-3.645 1.878 1.753-3.402 3.645 1.677 1.566 3.631-3.89z" fill="#d8d1d1" data-fill-palette-color="primary"></path><path d="M243.058 229.745l-9.907-7.405 1.842-2.465 8.974 0.496-0.121 0.162-5.995-4.481 1.763-2.359 9.907 7.406-1.702 2.278-9.878-0.525 0.298-0.399 6.588 4.926z" fill="#d8d1d1" data-fill-palette-color="primary"></path><path d="M254.746 212.875v0c-0.539 0.932-1.226 1.634-2.061 2.105-0.826 0.469-1.77 0.662-2.833 0.58-1.063-0.082-2.207-0.478-3.432-1.186v0c-1.237-0.715-2.156-1.512-2.758-2.392-0.6-0.87-0.904-1.785-0.913-2.744-0.015-0.962 0.247-1.91 0.786-2.841v0c0.783-1.354 1.698-2.201 2.747-2.541 1.049-0.34 2.12-0.28 3.215 0.18v0l-1.099 2.978c-0.528-0.141-1.018-0.166-1.47-0.076-0.451 0.091-0.806 0.359-1.063 0.805v0c-0.227 0.393-0.31 0.806-0.248 1.241 0.062 0.434 0.288 0.874 0.68 1.32 0.388 0.451 0.958 0.894 1.708 1.327v0c0.733 0.423 1.389 0.689 1.968 0.797 0.579 0.108 1.074 0.077 1.484-0.093 0.407-0.163 0.721-0.436 0.941-0.816v0c0.318-0.551 0.412-1.044 0.281-1.48-0.134-0.445-0.409-0.788-0.826-1.028v0l1.555-2.691c0.827 0.478 1.432 1.047 1.817 1.707 0.376 0.663 0.526 1.403 0.453 2.22-0.08 0.814-0.39 1.69-0.932 2.628z" fill="#d8d1d1" data-fill-palette-color="primary"></path><path d="M262.226 197.099l-3.427 7.522-11.256-5.128 3.427-7.522 2.32 1.057-2.206 4.842 2.162 0.985 2.067-4.537 2.338 1.065-2.067 4.537 2.089 0.952 2.206-4.842z" fill="#d8d1d1" data-fill-palette-color="primary"></path><path d="M265.629 188.158v0c-0.28 0.842-0.68 1.572-1.2 2.191-0.522 0.625-1.16 1.063-1.913 1.312-0.753 0.249-1.623 0.234-2.608-0.044v0l0.92-2.765c0.36 0.12 0.685 0.128 0.976 0.025 0.291-0.103 0.547-0.293 0.767-0.569 0.212-0.272 0.381-0.598 0.507-0.977v0c0.1-0.302 0.17-0.596 0.208-0.883 0.036-0.28 0.014-0.523-0.067-0.729-0.079-0.212-0.238-0.357-0.476-0.436v0c-0.283-0.094-0.523-0.078-0.723 0.048-0.199 0.126-0.463 0.385-0.792 0.775v0l-1.958 2.185c-0.64 0.722-1.284 1.232-1.932 1.529-0.644 0.307-1.39 0.319-2.238 0.037v0c-0.989-0.329-1.654-1-1.996-2.012-0.341-1.012-0.279-2.219 0.187-3.619v0c0.477-1.433 1.179-2.419 2.108-2.959 0.929-0.54 2.031-0.648 3.308-0.324v0l-0.914 2.747c-0.409-0.058-0.787 0.006-1.133 0.19-0.353 0.182-0.631 0.578-0.834 1.189v0c-0.145 0.437-0.181 0.814-0.109 1.13 0.071 0.323 0.225 0.524 0.463 0.604v0c0.218 0.073 0.421 0.044 0.607-0.088 0.184-0.124 0.411-0.334 0.68-0.629v0l2.048-2.327c0.689-0.763 1.367-1.279 2.035-1.549 0.672-0.262 1.377-0.27 2.116-0.024v0c0.784 0.261 1.377 0.665 1.78 1.213 0.401 0.554 0.617 1.233 0.65 2.036 0.026 0.801-0.13 1.709-0.467 2.723z" fill="#d8d1d1" data-fill-palette-color="primary"></path><path d="M0.767 146.621c0-5.992 4.858-10.85 10.85-10.85 5.992 0 10.85 4.858 10.851 10.85 0 5.992-4.858 10.85-10.851 10.85-5.992 0-10.85-4.858-10.85-10.85z" fill="#d8d1d1" data-fill-palette-color="primary"></path><path d="M256.427 146.621c0-5.992 4.858-10.85 10.85-10.85 5.992 0 10.85 4.858 10.851 10.85 0 5.992-4.858 10.85-10.851 10.85-5.992 0-10.85-4.858-10.85-10.85z" fill="#d8d1d1" data-fill-palette-color="primary"></path></g></svg></g></svg></g></svg></g></svg></g><defs></defs></svg><rect width="279.72" height="279.72" fill="none" stroke="none" visibility="hidden"></rect></g></svg></g></svg>